<svg width="1em" height="1em" viewBox="0 0 21 18" fill="none" xmlns="http://www.w3.org/2000/svg">
  <path
    d="M2.32714 14.12V13.4644C2.32714 13.1215 2.48851 12.7988 2.74066 12.6475C4.44515 11.6288 6.39169 11.0943 8.37858 11.0943C8.40884 11.0943 8.42901 11.0943 8.45927 11.1044C8.56012 10.3984 8.76184 9.72264 9.05432 9.10741C8.83244 9.08724 8.61055 9.07716 8.37858 9.07716C5.93783 9.07716 3.65846 9.7529 1.71191 10.9128C0.82437 11.4372 0.309998 12.4256 0.309998 13.4644V16.1372H9.64938C9.22578 15.532 8.89295 14.8462 8.67107 14.12H2.32714Z"
    fill="#303135" />
  <path
    d="M8.37858 8.06858C10.6075 8.06858 12.4129 6.26324 12.4129 4.03429C12.4129 1.80535 10.6075 0 8.37858 0C6.14963 0 4.34429 1.80535 4.34429 4.03429C4.34429 6.26324 6.14963 8.06858 8.37858 8.06858ZM8.37858 2.01715C9.48801 2.01715 10.3957 2.92486 10.3957 4.03429C10.3957 5.14372 9.48801 6.05144 8.37858 6.05144C7.26915 6.05144 6.36143 5.14372 6.36143 4.03429C6.36143 2.92486 7.26915 2.01715 8.37858 2.01715Z"
    fill="#303135" />
  <path
    d="M19.2207 12.1029C19.2207 11.881 19.1905 11.6793 19.1602 11.4675L20.31 10.4488L19.3014 8.70398L17.839 9.19818C17.5162 8.92587 17.1532 8.71407 16.7497 8.56278L16.4472 7.06001H14.43L14.1274 8.56278C13.724 8.71407 13.3609 8.92587 13.0382 9.19818L11.5758 8.70398L10.5672 10.4488L11.717 11.4675C11.6867 11.6793 11.6564 11.881 11.6564 12.1029C11.6564 12.3248 11.6867 12.5265 11.717 12.7383L10.5672 13.7569L11.5758 15.5018L13.0382 15.0076C13.3609 15.2799 13.724 15.4917 14.1274 15.643L14.43 17.1457H16.4472L16.7497 15.643C17.1532 15.4917 17.5162 15.2799 17.839 15.0076L19.3014 15.5018L20.31 13.7569L19.1602 12.7383C19.1905 12.5265 19.2207 12.3248 19.2207 12.1029ZM15.4386 14.12C14.3292 14.12 13.4214 13.2123 13.4214 12.1029C13.4214 10.9934 14.3292 10.0857 15.4386 10.0857C16.548 10.0857 17.4557 10.9934 17.4557 12.1029C17.4557 13.2123 16.548 14.12 15.4386 14.12Z"
    fill="#303135" />
</svg>